<svg width="50" height="42" viewBox="0 0 50 42" fill="none" xmlns="http://www.w3.org/2000/svg">
<path d="M8.44016 35.2102C6.2419 33.9789 4.10639 32.7716 1.95644 31.5906C0.793673 30.9519 0.269279 29.9444 0.319721 28.6783C0.369186 27.4368 1.05938 26.5266 2.13079 25.9224C2.87856 25.5007 3.64823 25.6399 4.41396 25.9006C7.42133 26.9247 10.4283 27.95 13.4401 28.9609C13.8009 29.082 14.1513 29.3165 14.613 29.1851C14.6297 28.9865 14.6546 28.7806 14.6632 28.5741C14.7325 26.9095 15.6966 25.7712 17.3743 25.5698C19.454 25.3201 21.5505 25.4842 23.6393 25.4867C24.2307 25.4874 24.7694 25.4087 25.3116 25.1775C27.3719 24.2987 29.4389 23.432 31.5954 22.8098C33.715 22.1982 35.8879 22.138 38.0691 22.2703C39.1489 22.3358 39.203 22.3199 39.2161 21.2445C39.2378 19.4479 39.841 18.8455 41.6211 18.8452C43.5605 18.8449 45.4998 18.8375 47.4391 18.849C48.8608 18.8574 49.5134 19.4967 49.5148 20.8914C49.5205 26.7396 49.5196 32.5879 49.5145 38.4361C49.5133 39.8045 48.8856 40.429 47.5174 40.4341C45.4569 40.4418 43.3963 40.4427 41.3358 40.4341C39.8853 40.428 39.2541 39.7884 39.2179 38.3212C39.1889 37.1456 39.1869 37.1889 37.9951 37.1352C36.3568 37.0614 34.9352 37.8083 33.451 38.2813C29.993 39.3833 26.5646 40.5786 23.1229 41.7321C21.8773 42.1496 20.697 42.0111 19.5439 41.3672C15.8683 39.3145 12.1802 37.2842 8.44016 35.2102ZM24.8646 39.2932C26.8468 38.6445 28.8123 37.9379 30.8152 37.3616C33.4088 36.6154 35.8343 35.1864 38.6683 35.3823C39.1941 35.4187 39.2147 35.0276 39.2146 34.6394C39.2135 31.3384 39.2067 28.0373 39.224 24.7364C39.2271 24.1466 38.9618 23.9138 38.4162 23.8924C36.7189 23.8259 35.0226 23.8794 33.3523 24.1755C30.7085 24.6443 28.2928 25.7958 25.8442 26.8319C25.3282 27.0502 24.8253 27.1702 24.2679 27.1664C22.239 27.1525 20.2097 27.1442 18.1809 27.1683C17.0579 27.1816 16.3858 27.8245 16.3942 28.7873C16.4033 29.8439 16.9365 30.2984 18.1887 30.3001C20.9144 30.3038 23.64 30.2925 26.3656 30.3064C28.0269 30.3148 29.453 31.6436 29.5117 33.2162C29.5308 33.7293 29.5949 34.3019 28.8624 34.405C28.1791 34.5011 28.0142 34.0651 27.8767 33.5002C27.6024 32.3737 27.122 32.04 25.925 32.0338C24.6228 32.0271 23.3152 31.9574 22.0193 32.0485C18.7604 32.2776 15.6718 31.7247 12.6278 30.5219C9.76399 29.3902 6.79822 28.5175 3.88271 27.5152C3.34387 27.33 2.90318 27.3421 2.49643 27.7983C1.76891 28.6141 1.91902 29.5818 2.89461 30.1244C8.44965 33.2135 14.0246 36.2675 19.5489 39.4107C20.887 40.172 22.1116 40.5523 23.5331 39.7614C23.8968 39.5591 24.3296 39.4811 24.8646 39.2932ZM41.0605 20.7951C41.0352 20.8814 40.9877 20.9677 40.9876 21.054C40.981 26.7453 40.9829 32.4367 40.9686 38.128C40.967 38.789 41.3512 38.8467 41.8563 38.8438C43.491 38.8344 45.127 38.8027 46.7602 38.8536C47.5718 38.8789 47.8056 38.572 47.7986 37.798C47.7699 34.6196 47.7884 31.4406 47.7894 28.2619C47.7902 26.0216 47.7946 23.7813 47.7881 21.5411C47.787 21.1341 47.8908 20.6001 47.24 20.6058C45.2163 20.6236 43.19 20.4733 41.0605 20.7951Z" fill="#EBEBEB"/>
<path d="M2.05682 5.78C2.59424 3.2216 4.07887 1.53256 6.49608 0.89797C9.47031 0.11715 12.0088 0.883862 13.7358 3.70519C14.4773 2.86421 15.0559 2.01593 15.9655 1.48017C19.5234 -0.615389 24.8798 1.22487 25.5315 6.04262C25.9118 8.85364 24.8594 11.2643 23.4821 13.5746C21.5116 16.88 18.8028 19.5794 16.1544 22.3231C15.5238 22.9763 14.8658 23.6031 14.2357 24.2568C13.9186 24.5858 13.6626 24.6017 13.3278 24.2624C10.14 21.0313 6.85047 17.8869 4.37146 14.0395C2.94525 11.8261 1.87582 9.47399 1.94187 6.75523C1.94916 6.45488 2.00224 6.15565 2.05682 5.78ZM6.58885 2.65321C4.62392 3.54925 3.64378 5.04922 3.67789 7.23648C3.71144 9.38844 4.61618 11.2229 5.71812 12.9694C7.80177 16.2719 10.5876 18.9805 13.2924 21.7548C13.6996 22.1724 13.9707 22.0653 14.3333 21.6932C16.1074 19.872 17.9167 18.0813 19.5276 16.1122C21.5103 13.6887 23.3006 11.1609 23.8782 7.96541C24.3809 5.18502 22.393 2.56558 19.5765 2.36727C17.6892 2.23438 16.2879 2.97461 15.3423 4.59308C14.8312 5.46778 14.3465 6.35787 13.7755 7.37334C13.2244 6.37573 12.7843 5.49017 12.2639 4.65463C10.9588 2.55923 9.09303 1.88713 6.58885 2.65321Z" fill="#EBEBEB"/>
</svg>
