<svg width="52" height="50" viewBox="0 0 52 50" fill="none" xmlns="http://www.w3.org/2000/svg">
<path d="M51.3042 49.8264L49.5957 40.2662H43.4587V25.5706L46.3095 28.2919L50.7434 24.0596L25.7194 0.173622L0.696289 24.0615L5.13041 28.2937L7.98116 25.5726V47.5217H35.0705L34.6587 49.8264H51.3042ZM48.34 41.7662L49.5124 48.3264H36.4504L36.5942 47.5217L36.7282 46.7717L36.8622 46.0217L37.3334 43.3842L37.4674 42.6342L37.6014 41.8842L37.6224 41.7661H41.9585H42.7085H43.4585H48.34V41.7662ZM7.98104 23.4991L5.13029 26.2204L2.86866 24.0615L25.7194 2.24737L48.5709 24.0596L46.3094 26.2184L43.4585 23.4971L43.3848 23.4267L25.7209 6.56612L8.05691 23.4267L7.98104 23.4991ZM19.3519 46.0219H9.48104V43.3844H19.3519V46.0219ZM19.3519 41.8844H9.48104V24.141L10.2293 23.4267L25.7209 8.63975L41.2125 23.4267L41.9587 24.1389V40.2662H36.3669L36.0778 41.8844H32.0878V34.9476C32.0878 31.4362 29.231 28.5797 25.7199 28.5797C22.2087 28.5797 19.3519 31.4364 19.3519 34.9476V41.8844ZM30.5878 46.0111H20.8519V34.9476C20.8519 32.2634 23.0357 30.0797 25.7199 30.0797C28.404 30.0797 30.5878 32.2635 30.5878 34.9476V46.0111ZM32.0878 46.0219V43.3844H35.8097L35.3384 46.0219H32.0878Z" fill="#EBEBEB"/>
</svg>
