<svg width="64" height="64" viewBox="0 0 64 64" fill="none" xmlns="http://www.w3.org/2000/svg">
<g clip-path="url(#clip0_116_218)">
<path fill-rule="evenodd" clip-rule="evenodd" d="M31.8778 63.9997L31.9064 63.9999H31.8965L31.8778 63.9997ZM32.1035 63.9999H32.0936L32.1222 63.9997L32.1035 63.9999ZM31.78 63.9992L31.8109 63.9994H31.7931L31.78 63.9992ZM32.2069 63.9994H32.1891L32.22 63.9992L32.2069 63.9994ZM31.6857 63.9985L31.7064 63.9986L31.6899 63.9985H31.6857ZM32.3101 63.9985L32.2936 63.9986L32.3143 63.9985H32.3101ZM32.4134 63.9974L32.4061 63.9975L32.434 63.9971L32.4134 63.9974ZM31.566 63.9971L31.5939 63.9975L31.5866 63.9974L31.566 63.9971ZM32.5165 63.9959L32.4996 63.9961L32.534 63.9956L32.5165 63.9959ZM31.466 63.9956L31.5004 63.9961L31.4835 63.9959L31.466 63.9956ZM32.6195 63.9941L32.5967 63.9945L32.6285 63.9939L32.6195 63.9941ZM31.3715 63.9939L31.4032 63.9945L31.3805 63.9941L31.3715 63.9939ZM31.2544 63.9915L31.2825 63.9921L31.2775 63.992L31.2544 63.9915ZM32.7225 63.992L32.7175 63.9921L32.7456 63.9915L32.7225 63.992ZM31.1516 63.9889L31.1903 63.9899L31.1746 63.9895L31.1516 63.9889ZM32.8254 63.9895L32.8097 63.9899L32.8484 63.9889L32.8254 63.9895ZM32.9282 63.9868L32.9031 63.9875L32.9426 63.9864L32.9282 63.9868ZM31.0574 63.9864L31.0969 63.9875L31.0718 63.9868L31.0574 63.9864ZM30.9674 63.9836L30.9955 63.9845L30.969 63.9836L30.9447 63.9829L30.9674 63.9836ZM33.031 63.9836L33.0045 63.9845L33.0326 63.9836L33.0552 63.9829L33.031 63.9836ZM33.1336 63.9803L33.1196 63.9808L33.1628 63.9793L33.1336 63.9803ZM30.8372 63.9793L30.8804 63.9808L30.8664 63.9803L30.8372 63.9793ZM30.7436 63.9757L30.7889 63.9774L30.7638 63.9765L30.7436 63.9757ZM33.2363 63.9765L33.2111 63.9774L33.2564 63.9757L33.2363 63.9765ZM30.6518 63.972L30.696 63.9739L30.6614 63.9725L30.6518 63.972ZM33.3386 63.9725L33.304 63.9739L33.3483 63.972L33.3386 63.9725ZM30.523 63.9664L30.5705 63.9685L30.5589 63.9681L30.523 63.9664ZM33.4411 63.9681L33.4295 63.9685L33.477 63.9664L33.4411 63.9681ZM30.4306 63.9621L30.4799 63.9644L30.4566 63.9634L30.4306 63.9621ZM33.5434 63.9634L33.5201 63.9644L33.5694 63.9621L33.5434 63.9634ZM30.3396 63.9575L30.3892 63.96L30.3544 63.9584L30.3396 63.9575ZM33.6456 63.9584L33.6107 63.96L33.6604 63.9575L33.6456 63.9584ZM33.7479 63.953L33.7026 63.9554L33.7427 63.9533L33.79 63.9506L33.7479 63.953ZM30.2572 63.9533L30.2974 63.9554L30.2521 63.953L30.21 63.9506L30.2572 63.9533ZM33.8499 63.9473L33.8299 63.9484L33.8806 63.9455L33.8499 63.9473ZM30.1194 63.9455L30.1701 63.9484L30.1501 63.9473L30.1194 63.9455ZM30.0291 63.9401L30.0798 63.9431L30.0481 63.9414L30.0291 63.9401ZM33.9519 63.9414L33.9202 63.9431L33.9709 63.9401L33.9519 63.9414ZM29.943 63.9347L29.9886 63.9376L29.9461 63.935L29.9034 63.9323L29.943 63.9347ZM34.0539 63.935L34.0114 63.9376L34.057 63.9347L34.0966 63.9323L34.0539 63.935ZM34.1556 63.9284L34.1404 63.9294L34.1888 63.9261L34.1556 63.9284ZM29.8113 63.9261L29.8596 63.9294L29.8444 63.9284L29.8113 63.9261ZM29.7211 63.9199L29.7686 63.9232L29.7426 63.9215L29.7211 63.9199ZM34.2574 63.9215L34.2314 63.9232L34.2789 63.9199L34.2574 63.9215ZM29.6313 63.9135L29.6749 63.9166L29.641 63.9142L29.6313 63.9135ZM34.359 63.9142L34.3251 63.9166L34.3688 63.9135L34.359 63.9142ZM29.5104 63.9044L29.5486 63.9072L29.5394 63.9066L29.5104 63.9044ZM34.4606 63.9066L34.4514 63.9072L34.4896 63.9044L34.4606 63.9066ZM34.562 63.8988L34.5438 63.9001L34.5826 63.897L34.562 63.8988ZM29.4174 63.897L29.4562 63.9001L29.438 63.8988L29.4174 63.897ZM29.3267 63.8896L29.3598 63.8924L29.3365 63.8905L29.3267 63.8896ZM34.6635 63.8905L34.6403 63.8924L34.6732 63.8896L34.6635 63.8905ZM29.227 63.8812L29.2369 63.8821L29.2353 63.882L29.227 63.8812ZM34.7648 63.882L34.7631 63.8821L34.773 63.8812L34.7648 63.882ZM34.866 63.8731L34.857 63.8739L34.8796 63.8719L34.866 63.8731ZM29.1204 63.8719L29.143 63.8739L29.134 63.8731L29.1204 63.8719ZM29.0266 63.8634L29.0435 63.865L29.033 63.864L29.0266 63.8634ZM34.967 63.864L34.9565 63.865L34.9734 63.8634L34.967 63.864ZM27 63.6109C11.7101 61.2076 0 47.9605 0 32C0 14.3388 14.3388 0 32 0C49.6612 0 64 14.3388 64 32C64 47.9605 52.2899 61.2076 37 63.6109V41.25H44.4562L45.875 32H37V25.9974C37 23.4668 38.2397 21 42.2149 21H46.25V13.125C46.25 13.125 42.588 12.5 39.0869 12.5C31.7774 12.5 27 16.93 27 24.95V32H18.875V41.25H27V63.6109Z" fill="#EBEBEB"/>
</g>
<defs>
<clipPath id="clip0_116_218">
<rect width="64" height="64" fill="white"/>
</clipPath>
</defs>
</svg>
