<svg width="64" height="64" viewBox="0 0 64 64" fill="none" xmlns="http://www.w3.org/2000/svg">
<g clip-path="url(#clip0_116_213)">
<path d="M39.3444 18.4407H24.6552C23.839 18.4407 23.0309 18.6014 22.2769 18.9137C21.5229 19.226 20.8377 19.6838 20.2607 20.2609C19.6836 20.838 19.2258 21.5231 18.9135 22.2771C18.6012 23.0311 18.4404 23.8393 18.4404 24.6554V39.3447C18.4404 40.9929 19.0952 42.5737 20.2607 43.7392C20.8378 44.3163 21.5229 44.774 22.2769 45.0864C23.0309 45.3987 23.839 45.5594 24.6552 45.5594H39.3444C40.9927 45.5594 42.5734 44.9046 43.7388 43.7391C44.9043 42.5736 45.5591 40.9929 45.5591 39.3447V24.6554C45.5591 23.8393 45.3983 23.0312 45.086 22.2772C44.7737 21.5231 44.316 20.838 43.7389 20.2609C43.1618 19.6838 42.4767 19.2261 41.7227 18.9137C40.9687 18.6014 40.1606 18.4407 39.3444 18.4407ZM31.9998 40.5489C30.309 40.5489 28.6562 40.0475 27.2503 39.1082C25.8444 38.1688 24.7487 36.8337 24.1017 35.2716C23.4546 33.7095 23.2853 31.9906 23.6152 30.3322C23.9451 28.6739 24.7593 27.1507 25.9548 25.9551C27.1504 24.7595 28.6737 23.9453 30.332 23.6154C31.9903 23.2856 33.7092 23.4549 35.2713 24.1019C36.8334 24.749 38.1686 25.8447 39.1079 27.2505C40.0473 28.6564 40.5487 30.3092 40.5487 32C40.5487 33.1227 40.3276 34.2344 39.8979 35.2716C39.4683 36.3088 38.8386 37.2512 38.0448 38.045C37.2509 38.8389 36.3085 39.4686 35.2713 39.8982C34.2341 40.3278 33.1225 40.5489 31.9998 40.5489ZM40.9051 25.1975C40.5028 25.1976 40.1095 25.0783 39.7751 24.8548C39.4406 24.6314 39.1799 24.3137 39.0259 23.9421C38.872 23.5705 38.8317 23.1615 38.9101 22.767C38.9886 22.3724 39.1823 22.01 39.4667 21.7256C39.7512 21.4411 40.1136 21.2474 40.5081 21.1689C40.9026 21.0904 41.3116 21.1307 41.6832 21.2846C42.0549 21.4385 42.3725 21.6992 42.596 22.0337C42.8195 22.3682 42.9388 22.7614 42.9388 23.1637C42.9388 23.7031 42.7245 24.2204 42.3431 24.6018C41.9617 24.9832 41.4445 25.1975 40.9051 25.1975Z" fill="#EBEBEB"/>
<path d="M32.0002 26.4431C30.9012 26.4431 29.8268 26.769 28.913 27.3796C27.9992 27.9902 27.2869 28.8581 26.8664 29.8735C26.4458 30.8889 26.3357 32.0062 26.5501 33.0841C26.7645 34.162 27.2938 35.1522 28.0709 35.9293C28.8481 36.7064 29.8382 37.2357 30.9161 37.4501C31.9941 37.6645 33.1114 37.5545 34.1268 37.1339C35.1421 36.7133 36.01 36.001 36.6206 35.0872C37.2312 34.1734 37.5571 33.099 37.5571 32C37.5571 30.5262 36.9717 29.1128 35.9295 28.0707C34.8874 27.0286 33.474 26.4431 32.0002 26.4431Z" fill="#EBEBEB"/>
<path d="M32 0C14.3269 0 0 14.3269 0 32C0 49.6731 14.3269 64 32 64C49.6731 64 64 49.6731 64 32C64 14.3269 49.6731 0 32 0ZM48.6666 39.0625C48.6665 41.6096 47.6546 44.0524 45.8535 45.8535C44.0524 47.6546 41.6096 48.6665 39.0625 48.6666H24.9375C22.3903 48.6665 19.9475 47.6546 18.1464 45.8535C16.3453 44.0524 15.3334 41.6097 15.3333 39.0625V24.9375C15.3333 22.3903 16.3453 19.9475 18.1464 18.1464C19.9475 16.3453 22.3903 15.3334 24.9375 15.3334H39.0625C41.6096 15.3335 44.0524 16.3454 45.8535 18.1465C47.6546 19.9476 48.6665 22.3904 48.6666 24.9375V39.0625Z" fill="#EBEBEB"/>
</g>
<defs>
<clipPath id="clip0_116_213">
<rect width="64" height="64" fill="white"/>
</clipPath>
</defs>
</svg>
