<svg width="41" height="38" viewBox="0 0 41 38" fill="none" xmlns="http://www.w3.org/2000/svg">
<g clip-path="url(#clip0_14_181)">
<path d="M20.4556 0.0909958C9.46961 0.0909958 0.563477 8.38971 0.563477 18.6253C0.563477 28.8624 9.46961 37.1616 20.4556 37.1616C31.4406 37.1616 40.3477 28.8629 40.3477 18.6253C40.3477 8.38971 31.4406 0.0909958 20.4556 0.0909958ZM30.5613 30.3948L25.064 22.2529C24.4124 23.2126 23.6837 24.1028 22.888 24.9122L27.7412 32.1005C25.9353 32.9663 23.9345 33.53 21.8118 33.7088V25.9468C21.3812 26.3253 20.9406 26.6868 20.4914 27.0189C20.4793 27.0254 20.4677 27.0299 20.4566 27.0374C20.445 27.0299 20.4339 27.0254 20.4219 27.0189C19.7576 26.528 19.1186 25.9673 18.4976 25.3756V33.6728C16.4021 33.4531 14.425 32.8649 12.6488 31.9716L17.6571 24.5532C16.8755 23.7154 16.17 22.7886 15.544 21.8015L9.87198 30.2015C6.34428 27.4218 4.09924 23.271 4.09924 18.6263C4.09924 10.8399 10.3962 4.43459 18.4966 3.57925V11.5454C18.6452 11.5889 18.7968 11.6283 18.9383 11.6862C19.2656 11.8335 19.5683 12.0278 19.8311 12.2709C20.0724 12.4762 20.366 12.6839 20.4556 12.9925C20.5452 12.6844 20.8388 12.4762 21.0796 12.2709C21.2981 12.0697 21.5474 11.9089 21.8108 11.7731V3.5433C30.0899 4.23935 36.5798 10.7225 36.5798 18.6263C36.5803 23.3793 34.231 27.6171 30.5613 30.3948Z" fill="#398378"/>
<path d="M26.6247 13.7629C25.7505 11.871 23.5417 11.6033 21.9226 12.2564C21.621 12.3918 21.3435 12.569 21.1018 12.7907C20.8797 12.9785 20.6092 13.1702 20.5277 13.4518C20.4446 13.1697 20.1746 12.979 19.953 12.7907C19.7118 12.5695 19.4328 12.3923 19.1317 12.2564C17.5131 11.6033 15.3043 11.871 14.4301 13.7629C13.5498 15.534 13.9446 17.4629 14.7096 19.0058C15.0002 19.7503 15.3587 20.4703 15.7707 21.1553C17.0065 23.2106 18.6905 24.9527 20.4949 26.2779C20.5055 26.2839 20.5161 26.2889 20.5272 26.2954C20.5377 26.2889 20.5478 26.2839 20.5589 26.2779C22.3633 24.9532 24.0473 23.2106 25.2831 21.1553C25.6951 20.4703 26.0536 19.7508 26.3432 19.0058C27.1107 17.4629 27.505 15.534 26.6247 13.7629ZM24.6964 19.0307C24.489 19.602 24.2301 20.1537 23.936 20.679C23.0507 22.2534 21.8441 23.5895 20.5503 24.6032C20.5413 24.6092 20.5347 24.6121 20.5272 24.6161C20.5201 24.6116 20.512 24.6087 20.505 24.6032C19.2102 23.5895 18.0031 22.2534 17.1183 20.679C16.8232 20.1537 16.5653 19.602 16.3579 19.0307C15.8094 17.8488 15.5269 16.3714 16.1574 15.0137C16.7844 13.5652 18.3672 13.3594 19.527 13.8603C19.742 13.9636 19.9425 14.0989 20.1157 14.2682C20.2743 14.4125 20.4687 14.5588 20.5272 14.7745C20.5861 14.5583 20.779 14.4125 20.9381 14.2682C21.1113 14.0984 21.3108 13.9631 21.5268 13.8603C22.6871 13.3594 24.2699 13.5647 24.8964 15.0137C25.5279 16.3714 25.2454 17.8488 24.6964 19.0307Z" fill="#398378"/>
</g>
<defs>
<clipPath id="clip0_14_181">
<rect width="39.7843" height="37.0706" fill="white" transform="translate(0.563477 0.0909958)"/>
</clipPath>
</defs>
</svg>
