<svg width="64" height="64" viewBox="0 0 64 64" fill="none" xmlns="http://www.w3.org/2000/svg">
<g clip-path="url(#clip0_116_210)">
<path d="M32.0013 0C14.3275 0 0 14.3301 0 32.0013C0 49.6751 14.3275 64 32.0013 64C49.6751 64 64 49.6751 64 32.0013C64 14.3301 49.6738 0 32.0013 0ZM48.1209 25.5491C48.1378 25.8947 48.1443 26.2417 48.1443 26.5926C48.1443 37.2502 40.0325 49.5374 25.1995 49.5374C20.6459 49.5374 16.4055 48.2027 12.8369 45.9155C13.4685 45.9896 14.1092 46.0273 14.7602 46.0273C18.5393 46.0273 22.0169 44.7381 24.7758 42.5757C21.2476 42.5094 18.2703 40.1767 17.2437 36.9734C17.7349 37.0695 18.2404 37.1176 18.7602 37.1176C19.4958 37.1176 20.2079 37.0214 20.885 36.8356C17.1943 36.0949 14.4146 32.833 14.4146 28.9292C14.4146 28.8941 14.4146 28.8603 14.4159 28.8252C15.5023 29.4295 16.7459 29.7921 18.0689 29.835C15.9038 28.386 14.4808 25.9207 14.4808 23.1215C14.4808 21.6439 14.8785 20.2573 15.5725 19.0669C19.5504 23.9454 25.4932 27.1566 32.1962 27.4919C32.0585 26.9032 31.987 26.2859 31.987 25.6543C31.987 21.2021 35.5971 17.5906 40.052 17.5906C42.3717 17.5906 44.4665 18.5705 45.9376 20.1365C47.7752 19.7765 49.501 19.1033 51.0591 18.1793C50.4548 20.0637 49.1774 21.6439 47.5114 22.6407C49.1449 22.4457 50.6992 22.0117 52.1443 21.371C51.0656 22.9916 49.6972 24.412 48.1209 25.5491Z" fill="#EBEBEB"/>
</g>
<defs>
<clipPath id="clip0_116_210">
<rect width="64" height="64" fill="white"/>
</clipPath>
</defs>
</svg>
